<svg width="204" height="211" viewBox="0 0 204 211" fill="none" xmlns="http://www.w3.org/2000/svg">
<path d="M201.362 84.2375C199.933 76.8176 197.672 69.5824 194.622 62.669C175.742 20.7179 130.317 -2.55464 85.2389 6.62953C81.526 7.37396 77.8606 8.33855 74.2621 9.51816C69.0525 10.8163 63.963 12.5558 59.0486 14.7177C33.7002 25.9713 14.2083 47.3063 5.2845 73.5657C-3.63928 99.825 -1.18279 128.619 12.0602 152.987C14.3976 157.277 17.0361 161.395 19.9558 165.312C22.9182 169.18 26.1349 172.848 29.5846 176.289C57.557 204.123 99.3288 212.81 136.079 198.435L142.434 195.739L148.211 192.85C152.096 190.668 155.828 188.223 159.381 185.532L164.58 181.488L166.891 179.37L169.009 177.637L172.861 174.17L174.209 173.015L175.364 171.667L178.831 167.815C183.168 162.901 186.977 157.543 190.193 151.832C195.247 143.018 198.886 133.465 200.977 123.523C203.719 110.584 203.849 97.2278 201.362 84.2375ZM167.661 175.326L165.35 177.444L163.04 179.562L158.033 183.607C154.535 186.164 150.868 188.481 147.056 190.539L141.278 193.428L135.116 195.931L125.68 199.013H124.717C111.831 201.701 98.5358 201.767 85.6241 199.205C78.2604 197.707 71.0896 195.381 64.2482 192.272C57.0311 189.003 50.2407 184.864 44.0277 179.948C37.4475 174.675 31.5594 168.593 26.5033 161.846C23.8835 158.351 21.503 154.684 19.378 150.869C18.2226 148.943 17.2597 147.017 16.2968 144.899C15.334 142.781 14.3711 140.855 13.7934 138.736C1.05552 105.547 7.40262 68.0551 30.3549 40.908L31.8955 39.3674L32.8583 38.2119L34.0138 37.0565L36.3247 34.9382L40.9465 30.8941C63.114 12.9308 92.0517 5.60834 120.095 10.8662C130.01 12.6555 139.569 16.0372 148.404 20.8801C154.118 24.0168 159.477 27.7617 164.388 32.0495L168.239 35.5159L169.587 36.6713L170.743 38.0194L174.209 41.8709C185.18 54.4246 192.681 69.6264 195.97 85.9707C198.51 98.8196 198.445 112.048 195.777 124.871C194.268 132.17 191.943 139.276 188.845 146.054C185.46 153.294 181.191 160.086 176.135 166.275L172.091 170.897L167.661 175.326ZM81.1948 200.361C71.978 198.455 63.0895 195.211 54.812 190.732C50.654 188.451 46.664 185.877 42.8723 183.029C39.1416 180.185 35.6033 177.097 32.2806 173.785C5.61999 146.808 -2.67862 106.673 11.0973 71.3349C11.8676 69.2166 12.8305 67.2909 13.6008 65.3651L14.7562 62.8616C11.7685 69.6483 9.57154 76.7561 8.20866 84.0449C4.51515 102.408 6.11805 121.442 12.8305 138.929C13.6008 141.047 14.5637 143.166 15.5265 145.091C16.4894 147.017 17.4523 149.136 18.6077 151.061C20.7267 154.942 23.1073 158.674 25.733 162.231C30.8279 169.065 36.7827 175.214 43.45 180.525C49.7773 185.53 56.6981 189.734 64.0556 193.043C81.3657 200.835 100.563 203.444 119.325 200.553C106.728 203.016 93.7665 202.951 81.1948 200.361ZM200.399 123.523C198.375 133.456 194.8 143.009 189.808 151.832C186.653 157.535 182.91 162.893 178.638 167.815L175.172 171.667L174.016 173.015L172.668 174.17L169.009 177.444H169.395L173.824 172.822L177.868 168.008C182.879 161.616 187.084 154.631 190.385 147.21C198.812 128.084 200.969 106.782 196.548 86.3559C195.402 80.963 193.791 75.6796 191.733 70.5646C190.051 66.2525 188.055 62.0689 185.763 58.0472C182.545 52.3369 178.737 46.9797 174.401 42.0635L170.935 38.2119L169.78 36.8639L168.432 35.7085L164.58 32.2421C159.751 27.662 154.459 23.5961 148.789 20.1098C144.773 17.7515 140.589 15.6918 136.271 13.9474C131.162 11.8261 125.879 10.1508 120.48 8.94044C112.453 7.17315 104.239 6.39706 96.0232 6.62953C110.874 5.32605 125.826 7.43385 139.738 12.792L145.9 15.2954L151.87 18.3766C155.686 20.5006 159.353 22.8811 162.847 25.5019L167.854 29.546L170.165 31.6644L172.476 33.7827L176.905 38.2119L180.949 42.8338C185.935 49.0353 190.139 55.8264 193.466 63.0542C196.564 69.833 198.89 76.9388 200.399 84.2375C203.014 97.1373 203.014 110.431 200.399 123.33V123.523Z" fill="black"/>
<path d="M39.7295 67.1986C39.7295 74.0093 42.9078 81.501 52.4427 88.0846C54.0319 89.2198 49.4914 90.1279 46.9942 88.3117C41.9997 84.6793 35.8701 75.5984 35.8701 65.8365C35.8701 51.307 46.0861 35.8695 63.3398 23.8373C87.1771 7.03769 113.058 0 132.128 0C157.781 0 185.705 14.5294 185.705 57.2096C185.705 90.5819 168.451 135.078 138.03 166.407C112.377 193.196 75.826 210.677 51.7616 210.677C27.6973 210.677 17.0272 198.417 17.0272 181.164C17.0272 158.916 30.6486 128.722 66.9721 103.295C70.1504 101.252 73.1017 99.2088 76.28 97.3926C84.2258 66.5175 92.3986 38.1397 93.9878 34.0533C96.485 26.7886 98.5282 32.6912 96.9391 38.5938C91.9446 55.3934 86.4961 75.1444 81.5016 94.4413C107.609 80.5929 128.495 80.5929 130.765 80.8199C133.49 81.047 132.355 83.3172 125.771 83.7712C119.868 84.2253 101.934 87.6306 79.2313 102.387C73.1017 126.224 67.4262 148.7 64.2479 163.91C62.6587 171.402 60.8425 165.499 61.2966 162.775C63.5668 148.473 68.5613 127.132 74.0098 106.019L69.4694 109.425C36.3241 134.851 20.4326 164.591 20.4326 181.164C20.4326 192.969 30.1945 203.185 52.2157 203.185C76.7341 203.185 117.598 182.299 134.171 162.775C162.776 130.084 179.802 92.6251 179.802 53.5773C179.802 25.1995 163.003 5.67556 131.219 5.67556C111.696 5.67556 86.269 15.2105 67.6532 27.6967C48.8103 40.1829 39.7295 55.8475 39.7295 67.1986Z" fill="#0081C6" fill-opacity="0.5"/>
</svg>
