<svg width="34" height="40" viewBox="0 0 34 40" fill="none" xmlns="http://www.w3.org/2000/svg">
<path d="M2 20C1.46957 20 0.96086 20.2107 0.585787 20.5858C0.210714 20.9609 0 21.4696 0 22V38C0 38.5304 0.210714 39.0391 0.585787 39.4142C0.96086 39.7893 1.46957 40 2 40C2.53043 40 3.03914 39.7893 3.41421 39.4142C3.78929 39.0391 4 38.5304 4 38V22C4 21.4696 3.78929 20.9609 3.41421 20.5858C3.03914 20.2107 2.53043 20 2 20ZM12 0C11.4696 0 10.9609 0.210714 10.5858 0.585786C10.2107 0.960859 10 1.46957 10 2V38C10 38.5304 10.2107 39.0391 10.5858 39.4142C10.9609 39.7893 11.4696 40 12 40C12.5304 40 13.0391 39.7893 13.4142 39.4142C13.7893 39.0391 14 38.5304 14 38V2C14 1.46957 13.7893 0.960859 13.4142 0.585786C13.0391 0.210714 12.5304 0 12 0ZM32 28C31.4696 28 30.9609 28.2107 30.5858 28.5858C30.2107 28.9609 30 29.4696 30 30V38C30 38.5304 30.2107 39.0391 30.5858 39.4142C30.9609 39.7893 31.4696 40 32 40C32.5304 40 33.0391 39.7893 33.4142 39.4142C33.7893 39.0391 34 38.5304 34 38V30C34 29.4696 33.7893 28.9609 33.4142 28.5858C33.0391 28.2107 32.5304 28 32 28ZM22 12C21.4696 12 20.9609 12.2107 20.5858 12.5858C20.2107 12.9609 20 13.4696 20 14V38C20 38.5304 20.2107 39.0391 20.5858 39.4142C20.9609 39.7893 21.4696 40 22 40C22.5304 40 23.0391 39.7893 23.4142 39.4142C23.7893 39.0391 24 38.5304 24 38V14C24 13.4696 23.7893 12.9609 23.4142 12.5858C23.0391 12.2107 22.5304 12 22 12Z" fill="black"/>
</svg>
