<svg width="38" height="40" viewBox="0 0 38 40" fill="none" xmlns="http://www.w3.org/2000/svg">
<path d="M10 16H12C12.5304 16 13.0391 15.7893 13.4142 15.4142C13.7893 15.0391 14 14.5304 14 14C14 13.4696 13.7893 12.9609 13.4142 12.5858C13.0391 12.2107 12.5304 12 12 12H10C9.46957 12 8.96086 12.2107 8.58579 12.5858C8.21071 12.9609 8 13.4696 8 14C8 14.5304 8.21071 15.0391 8.58579 15.4142C8.96086 15.7893 9.46957 16 10 16ZM18 28H10C9.46957 28 8.96086 28.2107 8.58579 28.5858C8.21071 28.9609 8 29.4696 8 30C8 30.5304 8.21071 31.0391 8.58579 31.4142C8.96086 31.7893 9.46957 32 10 32H18C18.5304 32 19.0391 31.7893 19.4142 31.4142C19.7893 31.0391 20 30.5304 20 30C20 29.4696 19.7893 28.9609 19.4142 28.5858C19.0391 28.2107 18.5304 28 18 28ZM18 20H10C9.46957 20 8.96086 20.2107 8.58579 20.5858C8.21071 20.9609 8 21.4696 8 22C8 22.5304 8.21071 23.0391 8.58579 23.4142C8.96086 23.7893 9.46957 24 10 24H18C18.5304 24 19.0391 23.7893 19.4142 23.4142C19.7893 23.0391 20 22.5304 20 22C20 21.4696 19.7893 20.9609 19.4142 20.5858C19.0391 20.2107 18.5304 20 18 20ZM31.84 14.76C31.9932 14.3958 32.035 13.9944 31.9603 13.6064C31.8855 13.2184 31.6975 12.8612 31.42 12.58L19.42 0.58C19.2547 0.424432 19.0656 0.296162 18.86 0.2C18.8003 0.19152 18.7397 0.19152 18.68 0.2L18.12 0H6C4.4087 0 2.88258 0.632141 1.75736 1.75736C0.632141 2.88258 0 4.4087 0 6V34C0 35.5913 0.632141 37.1174 1.75736 38.2426C2.88258 39.3679 4.4087 40 6 40H18C18.5304 40 19.0391 39.7893 19.4142 39.4142C19.7893 39.0391 20 38.5304 20 38C20 37.4696 19.7893 36.9609 19.4142 36.5858C19.0391 36.2107 18.5304 36 18 36H6C5.46957 36 4.96086 35.7893 4.58579 35.4142C4.21071 35.0391 4 34.5304 4 34V6C4 5.46957 4.21071 4.96086 4.58579 4.58579C4.96086 4.21071 5.46957 4 6 4H16V10C16 11.5913 16.6321 13.1174 17.7574 14.2426C18.8826 15.3679 20.4087 16 22 16H30C30.3949 15.998 30.7803 15.8792 31.1077 15.6586C31.4352 15.4379 31.69 15.1252 31.84 14.76ZM22 12C21.4696 12 20.9609 11.7893 20.5858 11.4142C20.2107 11.0391 20 10.5304 20 10V6.82L25.18 12H22ZM36 20H26C25.4696 20 24.9609 20.2107 24.5858 20.5858C24.2107 20.9609 24 21.4696 24 22V38C24.001 38.3618 24.1001 38.7166 24.2867 39.0265C24.4734 39.3365 24.7406 39.5899 25.06 39.76C25.3727 39.9206 25.7223 39.9959 26.0734 39.9783C26.4245 39.9608 26.7648 39.851 27.06 39.66L31 37.06L35 39.66C35.2988 39.8328 35.6372 39.9253 35.9823 39.9286C36.3275 39.9319 36.6676 39.8458 36.9696 39.6786C37.2716 39.5115 37.5252 39.2691 37.7058 38.975C37.8863 38.6808 37.9877 38.3449 38 38V22C38 21.4696 37.7893 20.9609 37.4142 20.5858C37.0391 20.2107 36.5304 20 36 20ZM34 34.24L32.12 32.98C31.7893 32.7564 31.3992 32.637 31 32.637C30.6008 32.637 30.2107 32.7564 29.88 32.98L28 34.24V24H34V34.24Z" fill="black"/>
</svg>
