<svg width="40" height="42" viewBox="0 0 40 42" fill="none" xmlns="http://www.w3.org/2000/svg">
<path d="M38 16C38.2627 16.0001 38.5228 15.9484 38.7654 15.8479C39.0081 15.7474 39.2286 15.6001 39.4144 15.4144C39.6001 15.2286 39.7474 15.0081 39.8479 14.7654C39.9484 14.5228 40.0001 14.2627 40 14V8C40.0002 7.58035 39.8682 7.1713 39.6228 6.83089C39.3774 6.49048 39.031 6.23599 38.6328 6.10352L20.6328 0.10352C20.222 -0.0331983 19.778 -0.0331983 19.3672 0.10352L1.36718 6.10352C0.968986 6.23599 0.622617 6.49048 0.377212 6.83089C0.131806 7.1713 -0.000172502 7.58035 -6.96702e-08 8V14C-6.83887e-05 14.2627 0.0516167 14.5228 0.152102 14.7654C0.252587 15.0081 0.399903 15.2286 0.585634 15.4144C0.771365 15.6001 0.99187 15.7474 1.23455 15.8479C1.47723 15.9484 1.73734 16.0001 2 16H4V30.3685C2.83347 30.7794 1.82273 31.5413 1.10653 32.5496C0.390339 33.558 0.00380471 34.7632 -6.96702e-08 36V40C-6.83887e-05 40.2627 0.0516167 40.5228 0.152102 40.7655C0.252587 41.0081 0.399903 41.2286 0.585634 41.4144C0.771365 41.6001 0.99187 41.7474 1.23455 41.8479C1.47723 41.9484 1.73734 42.0001 2 42H38C38.2627 42.0001 38.5228 41.9484 38.7654 41.8479C39.0081 41.7474 39.2286 41.6001 39.4144 41.4144C39.6001 41.2286 39.7474 41.0081 39.8479 40.7655C39.9484 40.5228 40.0001 40.2627 40 40V36C39.9962 34.7632 39.6097 33.558 38.8935 32.5496C38.1773 31.5413 37.1665 30.7794 36 30.3685V16H38ZM36 38H4V36C4.00053 35.4697 4.21141 34.9613 4.58637 34.5864C4.96133 34.2114 5.46973 34.0005 6 34H34C34.5303 34.0005 35.0387 34.2114 35.4136 34.5864C35.7886 34.9613 35.9995 35.4697 36 36V38ZM8 30V16H12V30H8ZM16 30V16H24V30H16ZM28 30V16H32V30H28ZM4 12V9.4414L20 4.1074L36 9.4414V12H4Z" fill="black"/>
</svg>
